<svg xmlns="http://www.w3.org/2000/svg" viewBox="0 0 800 500">
  <defs>
    <linearGradient id="s1bg" x1="0" y1="0" x2="1" y2="1">
      <stop offset="0%" stop-color="#141B26"/>
      <stop offset="100%" stop-color="#0A0D12"/>
    </linearGradient>
    <radialGradient id="s1glow" cx="75%" cy="10%" r="60%">
      <stop offset="0%" stop-color="#D4A24E" stop-opacity="0.14"/>
      <stop offset="100%" stop-color="#D4A24E" stop-opacity="0"/>
    </radialGradient>
  </defs>
  <rect width="800" height="500" fill="url(#s1bg)"/>
  <rect width="800" height="500" fill="url(#s1glow)"/>

  <!-- app window -->
  <rect x="40" y="40" width="720" height="430" rx="14" fill="#10151F" stroke="#232C3B"/>
  <rect x="40" y="40" width="720" height="46" rx="14" fill="#141B26"/>
  <rect x="40" y="72" width="720" height="14" fill="#141B26"/>
  <circle cx="66" cy="63" r="5" fill="#2A3444"/>
  <circle cx="84" cy="63" r="5" fill="#2A3444"/>
  <circle cx="102" cy="63" r="5" fill="#2A3444"/>
  <rect x="340" y="55" width="120" height="16" rx="8" fill="#1A2230"/>
  <text x="368" y="67" font-family="ui-monospace, monospace" font-size="10" fill="#6B7889">sdlc.app/project</text>

  <!-- sidebar -->
  <rect x="40" y="86" width="150" height="384" fill="#0D1117"/>
  <rect x="64" y="112" width="90" height="10" rx="3" fill="#D4A24E"/>
  <g fill="#5A6473" font-family="ui-monospace, monospace" font-size="11">
    <rect x="64" y="150" width="12" height="12" rx="3" fill="#D4A24E" opacity="0.9"/>
    <text x="86" y="160">Requirements</text>
    <rect x="64" y="182" width="12" height="12" rx="3" fill="#3A4457"/>
    <text x="86" y="192">Architecture</text>
    <rect x="64" y="214" width="12" height="12" rx="3" fill="#3A4457"/>
    <text x="86" y="224">Sprints</text>
    <rect x="64" y="246" width="12" height="12" rx="3" fill="#3A4457"/>
    <text x="86" y="256">API Spec</text>
    <rect x="64" y="278" width="12" height="12" rx="3" fill="#3A4457"/>
    <text x="86" y="288">QA Tests</text>
  </g>

  <!-- main content: pipeline progress -->
  <text x="216" y="122" font-family="ui-monospace, monospace" font-size="11" fill="#8A6A34" letter-spacing="1">AI PIPELINE</text>
  <text x="216" y="146" font-family="system-ui, sans-serif" font-size="20" font-weight="600" fill="#F4F6F8">Processing requirements.pdf</text>

  <!-- stage rows -->
  <g font-family="ui-monospace, monospace" font-size="11">
    <rect x="216" y="172" width="524" height="52" rx="10" fill="#141B26" stroke="#232C3B"/>
    <circle cx="240" cy="198" r="9" fill="#D4A24E"/>
    <path d="M235 198 l4 4 l8 -8" stroke="#0A0D12" stroke-width="2" fill="none" stroke-linecap="round" stroke-linejoin="round"/>
    <text x="260" y="195" fill="#F4F6F8" font-family="system-ui, sans-serif" font-size="13">Requirements Extraction</text>
    <text x="260" y="211" fill="#6B7889">Complete</text>
    <rect x="640" y="188" width="80" height="20" rx="10" fill="#22301F"/>
    <text x="654" y="202" fill="#7CC98A">done</text>

    <rect x="216" y="234" width="524" height="52" rx="10" fill="#141B26" stroke="#D4A24E" stroke-width="1.5"/>
    <circle cx="240" cy="260" r="9" fill="none" stroke="#E6B563" stroke-width="2"/>
    <circle cx="240" cy="260" r="3" fill="#E6B563"/>
    <text x="260" y="257" fill="#F4F6F8" font-family="system-ui, sans-serif" font-size="13">Architecture + Sprint Planning</text>
    <text x="260" y="273" fill="#6B7889">Running in parallel…</text>
    <rect x="640" y="250" width="80" height="20" rx="10" fill="#3A2E13"/>
    <text x="652" y="264" fill="#E6B563">active</text>

    <rect x="216" y="296" width="524" height="52" rx="10" fill="#141B26" stroke="#232C3B"/>
    <circle cx="240" cy="322" r="9" fill="none" stroke="#3A4457" stroke-width="2"/>
    <text x="260" y="319" fill="#93A1B0" font-family="system-ui, sans-serif" font-size="13">API Spec + QA Tests</text>
    <text x="260" y="335" fill="#5A6473">Queued</text>
  </g>

  <!-- mini stat cards -->
  <g font-family="ui-monospace, monospace" font-size="10">
    <rect x="216" y="368" width="168" height="70" rx="10" fill="#141B26" stroke="#232C3B"/>
    <text x="234" y="392" fill="#8A6A34">REQUIREMENTS</text>
    <text x="234" y="418" fill="#F4F6F8" font-family="system-ui, sans-serif" font-size="22" font-weight="600">18</text>

    <rect x="396" y="368" width="168" height="70" rx="10" fill="#141B26" stroke="#232C3B"/>
    <text x="414" y="392" fill="#8A6A34">EPICS / STORIES</text>
    <text x="414" y="418" fill="#F4F6F8" font-family="system-ui, sans-serif" font-size="22" font-weight="600">6 / 24</text>

    <rect x="576" y="368" width="164" height="70" rx="10" fill="#141B26" stroke="#232C3B"/>
    <text x="594" y="392" fill="#8A6A34">CONNECTION</text>
    <circle cx="600" cy="415" r="4" fill="#7CC98A"/>
    <text x="612" y="419" fill="#F4F6F8" font-family="system-ui, sans-serif" font-size="13">Live · WebSocket</text>
  </g>
</svg>
